<?xml version="1.0" encoding="UTF-8"?>
<svg xmlns="http://www.w3.org/2000/svg" viewBox="0 0 718.18 782.18">
  <defs>
    <style>
      .cls-1 {
        fill: #3e3b36;
      }
    </style>
  </defs>
  <g id="Camada_1" data-name="Camada 1">
    <path class="cls-1" d="M718.18,103.39V761.56c0,11.39-9.23,20.62-20.62,20.62h-18.76c-11.39,0-20.62-9.23-20.62-20.62V311.2c0-21.85-29.53-28.7-39.14-9.07l-217.05,443.24c-3.46,7.07-10.65,11.55-18.52,11.55h-47.06c-7.87,0-15.06-4.48-18.52-11.55l-106.55-217.6-18.09-36.93-94.1-192.16c-9.61-19.63-39.14-12.78-39.14,9.07v453.82c0,11.39-9.23,20.62-20.62,20.62H20.62c-11.39,0-20.62-9.23-20.62-20.62V103.39c0-11.39,9.23-20.62,20.62-20.62h26.73c7.87,0,15.06,4.48,18.52,11.55l8.72,17.82,182.56,372.79,18.48,37.73,62.96,128.57c7.54,15.4,29.5,15.4,37.04,0L648.36,94.32c3.46-7.07,10.65-11.55,18.52-11.55h30.67c11.39,0,20.62,9.23,20.62,20.62Z"/>
    <polygon class="cls-1" points="356.2 756.18 356.03 756.53 355.86 756.18 356.2 756.18"/>
    <polygon class="cls-1" points="356.2 756.18 356.03 756.53 355.86 756.18 356.2 756.18"/>
    <rect class="cls-1" x="657.39" width="60" height="60" rx="20.04" ry="20.04"/>
  </g>
  <g id="Camada_2" data-name="Camada 2">
    <path class="cls-1" d="M232.09,82.82c-1.67-.04-3.34-.06-5.02-.06H9.64c-5.33,0-9.64,4.32-9.64,9.64v425.72c0,5.33,4.32,9.64,9.64,9.64H227.07c1.68,0,3.35-.02,5.02-.06,14.92-.32,29.48-2.04,43.55-5.05,102.03-21.8,178.43-110.85,178.43-217.39,0-121.25-98.93-219.83-221.98-222.44Zm25.07,402.1c-8.17,1.93-16.54,3.42-25.07,4.41-7.72,.91-15.58,1.4-23.54,1.48v.02H55.84c-5.33,0-9.64-4.32-9.64-9.64V121.78c0-5.33,4.32-9.64,9.64-9.64H194.87c3.81-.2,7.65-.3,11.51-.3,8.71,0,17.29,.51,25.71,1.49,100.64,11.73,178.5,91.43,178.5,188.01,0,88.39-65.22,162.65-153.43,183.59Z"/>
    <path class="cls-1" d="M208.55,490.81v.02h-2.17c.72,0,1.45,0,2.17-.02Z"/>
    <path class="cls-1" d="M232.09,82.76v.06c-1.67-.04-3.34-.06-5.02-.06h5.02Z"/>
  </g>
</svg>